<svg xmlns="http://www.w3.org/2000/svg" width="150" height="150" viewBox="0 0 150 150" fill="none">
    <path d="M149.993 74.9964C149.993 33.578 116.415 0 74.9966 0C33.578 0 0 33.578 0 74.9964C0 91.3184 5.22249 106.427 14.0789 118.74V117.349C18.7696 106.236 23.4603 95.1296 28.1578 84.0165C32.8485 95.1296 37.5392 106.243 42.2367 117.356V142.473C43.9616 143.311 45.7206 144.089 47.5138 144.798V105.077C52.6476 92.9274 57.7746 80.7712 62.9085 68.6217C68.0424 80.778 73.1694 92.9274 78.3033 105.084V124.971C94.1412 109.133 109.972 93.3024 125.81 77.4645V130.16C140.68 116.456 150 96.8136 150 74.9964H149.993Z" fill="#35655F"/>
    <path d="M78.2973 124.924V80.9552C73.1635 61.8857 68.0364 42.823 62.9026 23.7534C57.7687 42.8162 52.6417 61.8789 47.5078 80.9484V144.716C50.5895 146.039 53.8553 147.116 55.7643 147.498C67.3001 135.914 78.2973 124.917 78.2973 124.917V124.924Z" fill="#F7DF3D"/>
    <path d="M28.1492 84.0166C23.4585 95.1297 18.7678 106.236 14.0703 117.349V118.74C21.3109 128.803 30.9786 136.998 42.2213 142.473V117.356C37.5306 106.243 32.8399 95.1297 28.1424 84.0166H28.1492Z" fill="#F8FFFE"/>
    <path d="M78.2969 124.972V149.918C96.596 149.127 113.198 141.778 125.804 130.16V77.4648C109.966 93.3027 94.1348 109.134 78.2969 124.972Z" fill="#1C2928"/>
    <path d="M74.9949 149.993C76.0994 149.993 77.1971 149.966 78.2948 149.918V124.972C70.7815 132.485 63.275 139.991 55.7617 147.505C61.8978 149.127 68.3475 150 74.9949 150V149.993Z" fill="#D3F9E9"/>
</svg>
