<svg xmlns="http://www.w3.org/2000/svg" width="150" height="150" viewBox="0 0 150 150" fill="none">
    <path d="M78.4808 35.6941C82.8944 44.1405 87.8217 53.7791 86.4647 63.6269C85.3105 72.0099 80.3832 79.334 74.9993 85.6181C68.2711 93.4811 58.036 97.3745 48.8536 101.56C44.5795 103.506 41.0346 105.91 38.0098 108.846H141.026C141.407 104.864 141.464 100.932 139.34 97.3746C137.323 93.9884 133.581 91.9148 129.739 91.0397C123.663 89.651 107.911 93.8045 104.157 87.3238C101.798 83.2528 107.436 74.9205 109.116 71.4329C113.72 61.8704 123.48 51.9591 122.725 40.6782C122.478 37.0193 120.981 33.519 118.907 30.4943C116.143 26.455 112.312 23.1512 107.911 21.0016C101.64 17.9451 96.5412 18.3129 95.3173 10.3294C94.9495 7.93876 95.07 5.37057 95.5773 2.85947C90.2759 1.35027 84.7271 0.411798 79.0135 0.107422C76.8637 3.2463 74.8281 6.46761 72.9954 9.8094C67.7828 19.3021 74.0608 27.2349 78.4808 35.6941Z" fill="#F8FFFE"/>
    <path d="M0 74.997C0 87.1784 2.90439 98.6749 8.05997 108.846H38.0105C41.0354 105.91 44.5803 103.507 48.8544 101.56C58.0368 97.3749 68.2719 93.4815 75.0001 85.6185C80.384 79.328 85.305 72.0103 86.4654 63.6273C87.8225 53.7794 82.8952 44.1472 78.4816 35.6944C74.0616 27.2353 67.7835 19.2962 72.9962 9.80977C74.8289 6.46797 76.8645 3.24667 79.0143 0.107789C77.6889 0.0380362 76.3509 0 75.0065 0C33.5842 0 0.00634762 33.5765 0.00634762 74.997H0Z" fill="#F7DF3A"/>
    <path d="M95.3112 10.3239C96.5414 18.3074 101.634 17.9396 107.905 20.9961C112.306 23.1394 116.136 26.4495 118.901 30.4888C120.975 33.5135 122.472 37.0138 122.719 40.6727C123.48 51.9536 113.714 61.8649 109.11 71.4274C107.43 74.915 101.792 83.2473 104.151 87.3183C107.905 93.799 123.657 89.6455 129.733 91.0342C133.575 91.9093 137.317 93.9829 139.333 97.3691C141.451 100.926 141.394 104.864 141.02 108.84H141.94C147.095 98.6691 150 87.1725 150 74.9911C150 40.7044 126.993 11.7887 95.5712 2.84766C95.0639 5.35876 94.9434 7.92057 95.3112 10.3175V10.3239Z" fill="#52B5A4"/>
    <path d="M29.4799 120.894C27.8565 124.153 26.436 127.514 24.9141 130.824C38.193 142.746 55.7461 150 74.9987 150C103.364 150 128.051 134.255 140.797 111.021C140.873 110.298 140.956 109.569 141.026 108.846H38.0091C34.6037 112.156 31.8579 116.132 29.4862 120.894H29.4799Z" fill="#35655F"/>
    <path d="M24.9166 130.824C26.4449 127.52 27.859 124.153 29.4824 120.894C31.8541 116.138 34.5999 112.156 38.0053 108.846H8.05469C12.2844 117.191 18.0234 124.629 24.9166 130.818V130.824Z" fill="#1C2928"/>
</svg>
