<svg width="361" height="81" viewBox="0 0 361 81" fill="none" xmlns="http://www.w3.org/2000/svg">
    <rect x="12.2012" y="10.458" width="348.606" height="69.7212" rx="34.8606" fill="#F7DF3A"/>
    <rect width="348.606" height="69.7212" rx="34.8606" fill="#52B5A4"/>
    <path d="M79.5562 48L77.6929 41.8828H68.3238L66.4605 48H60.5894L69.6597 22.1953H76.3218L85.4273 48H79.5562ZM76.3921 37.3125L74.5289 31.3359C74.4117 30.9375 74.2535 30.4277 74.0542 29.8066C73.8667 29.1738 73.6734 28.5352 73.4742 27.8906C73.2867 27.2344 73.1343 26.666 73.0171 26.1855C72.8999 26.666 72.7359 27.2637 72.5249 27.9785C72.3257 28.6816 72.1324 29.3496 71.9449 29.9824C71.7574 30.6152 71.6226 31.0664 71.5406 31.3359L69.6949 37.3125H76.3921ZM99.191 27.9785C101.406 27.9785 103.193 28.8398 104.552 30.5625C105.923 32.2852 106.609 34.8105 106.609 38.1387C106.609 40.3652 106.287 42.2402 105.642 43.7637C104.998 45.2754 104.107 46.418 102.97 47.1914C101.834 47.9648 100.527 48.3516 99.0503 48.3516C98.1011 48.3516 97.2867 48.2344 96.607 48C95.9273 47.7539 95.3472 47.4434 94.8667 47.0684C94.3863 46.6816 93.9703 46.2715 93.6187 45.8379H93.3374C93.4312 46.3066 93.5015 46.7871 93.5484 47.2793C93.5953 47.7715 93.6187 48.252 93.6187 48.7207V56.6484H88.2574V28.3477H92.6167L93.3726 30.8965H93.6187C93.9703 30.3691 94.398 29.8828 94.9019 29.4375C95.4058 28.9922 96.0093 28.6406 96.7124 28.3828C97.4273 28.1133 98.2535 27.9785 99.191 27.9785ZM97.4683 32.2676C96.5308 32.2676 95.7867 32.4609 95.2359 32.8477C94.6851 33.2344 94.2808 33.8145 94.023 34.5879C93.7769 35.3613 93.6421 36.3398 93.6187 37.5234V38.1035C93.6187 39.3691 93.7359 40.4414 93.9703 41.3203C94.2164 42.1992 94.6207 42.8672 95.1832 43.3242C95.7574 43.7812 96.5425 44.0098 97.5386 44.0098C98.3589 44.0098 99.0328 43.7812 99.5601 43.3242C100.087 42.8672 100.48 42.1992 100.738 41.3203C101.007 40.4297 101.142 39.3457 101.142 38.0684C101.142 36.1465 100.843 34.6992 100.246 33.7266C99.648 32.7539 98.7222 32.2676 97.4683 32.2676ZM121.972 27.9785C124.187 27.9785 125.974 28.8398 127.334 30.5625C128.705 32.2852 129.39 34.8105 129.39 38.1387C129.39 40.3652 129.068 42.2402 128.423 43.7637C127.779 45.2754 126.888 46.418 125.752 47.1914C124.615 47.9648 123.308 48.3516 121.832 48.3516C120.882 48.3516 120.068 48.2344 119.388 48C118.709 47.7539 118.128 47.4434 117.648 47.0684C117.168 46.6816 116.752 46.2715 116.4 45.8379H116.119C116.212 46.3066 116.283 46.7871 116.33 47.2793C116.377 47.7715 116.4 48.252 116.4 48.7207V56.6484H111.039V28.3477H115.398L116.154 30.8965H116.4C116.752 30.3691 117.179 29.8828 117.683 29.4375C118.187 28.9922 118.791 28.6406 119.494 28.3828C120.209 28.1133 121.035 27.9785 121.972 27.9785ZM120.25 32.2676C119.312 32.2676 118.568 32.4609 118.017 32.8477C117.466 33.2344 117.062 33.8145 116.804 34.5879C116.558 35.3613 116.423 36.3398 116.4 37.5234V38.1035C116.4 39.3691 116.517 40.4414 116.752 41.3203C116.998 42.1992 117.402 42.8672 117.964 43.3242C118.539 43.7812 119.324 44.0098 120.32 44.0098C121.14 44.0098 121.814 43.7812 122.341 43.3242C122.869 42.8672 123.261 42.1992 123.519 41.3203C123.789 40.4297 123.923 39.3457 123.923 38.0684C123.923 36.1465 123.625 34.6992 123.027 33.7266C122.429 32.7539 121.503 32.2676 120.25 32.2676ZM139.181 48H133.82V20.6484H139.181V48ZM142.011 28.3477H147.882L151.591 39.4043C151.709 39.7559 151.808 40.1133 151.89 40.4766C151.972 40.8398 152.043 41.2148 152.101 41.6016C152.16 41.9883 152.207 42.3926 152.242 42.8145H152.347C152.418 42.1816 152.511 41.5898 152.628 41.0391C152.757 40.4883 152.916 39.9434 153.103 39.4043L156.742 28.3477H162.49L154.175 50.5137C153.671 51.873 153.015 53.0039 152.207 53.9062C151.398 54.8203 150.466 55.5059 149.412 55.9629C148.369 56.4199 147.22 56.6484 145.966 56.6484C145.357 56.6484 144.83 56.6133 144.384 56.543C143.939 56.4844 143.558 56.4199 143.242 56.3496V52.0957C143.488 52.1543 143.798 52.207 144.173 52.2539C144.548 52.3008 144.941 52.3242 145.351 52.3242C146.101 52.3242 146.746 52.166 147.285 51.8496C147.824 51.5332 148.275 51.1055 148.638 50.5664C149.002 50.0391 149.289 49.459 149.5 48.8262L149.816 47.8594L142.011 28.3477ZM182.951 44.0801C183.537 44.0801 184.105 44.0215 184.656 43.9043C185.218 43.7871 185.775 43.6406 186.326 43.4648V47.4551C185.752 47.7129 185.037 47.9238 184.181 48.0879C183.337 48.2637 182.412 48.3516 181.404 48.3516C180.232 48.3516 179.177 48.1641 178.24 47.7891C177.314 47.4023 176.582 46.7402 176.043 45.8027C175.515 44.8535 175.252 43.5352 175.252 41.8477V32.373H172.685V30.1055L175.638 28.3125L177.185 24.1641H180.613V28.3477H186.115V32.373H180.613V41.8477C180.613 42.5977 180.824 43.1602 181.246 43.5352C181.679 43.8984 182.248 44.0801 182.951 44.0801ZM208.175 38.1387C208.175 39.7793 207.953 41.2324 207.507 42.498C207.074 43.7637 206.435 44.8359 205.591 45.7148C204.759 46.582 203.752 47.2383 202.568 47.6836C201.396 48.1289 200.072 48.3516 198.595 48.3516C197.212 48.3516 195.941 48.1289 194.781 47.6836C193.632 47.2383 192.63 46.582 191.775 45.7148C190.931 44.8359 190.275 43.7637 189.806 42.498C189.349 41.2324 189.121 39.7793 189.121 38.1387C189.121 35.959 189.507 34.1133 190.281 32.6016C191.054 31.0898 192.156 29.9414 193.585 29.1562C195.015 28.3711 196.72 27.9785 198.701 27.9785C200.541 27.9785 202.169 28.3711 203.587 29.1562C205.017 29.9414 206.136 31.0898 206.945 32.6016C207.765 34.1133 208.175 35.959 208.175 38.1387ZM194.587 38.1387C194.587 39.4277 194.728 40.5117 195.009 41.3906C195.291 42.2695 195.73 42.9316 196.328 43.377C196.925 43.8223 197.705 44.0449 198.666 44.0449C199.615 44.0449 200.382 43.8223 200.968 43.377C201.566 42.9316 202 42.2695 202.269 41.3906C202.55 40.5117 202.691 39.4277 202.691 38.1387C202.691 36.8379 202.55 35.7598 202.269 34.9043C202 34.0371 201.566 33.3867 200.968 32.9531C200.371 32.5195 199.591 32.3027 198.63 32.3027C197.212 32.3027 196.181 32.7891 195.537 33.7617C194.904 34.7344 194.587 36.1934 194.587 38.1387ZM219.689 55.5586C218.986 55.5586 218.371 55.5176 217.843 55.4355C217.304 55.3652 216.847 55.2773 216.472 55.1719V50.6367C216.847 50.7188 217.252 50.7949 217.685 50.8652C218.107 50.9473 218.558 50.9883 219.039 50.9883C219.671 50.9883 220.24 50.8652 220.744 50.6191C221.248 50.3848 221.646 49.9336 221.939 49.2656C222.232 48.5977 222.378 47.6367 222.378 46.3828V22.3008H227.828V46.3477C227.828 48.5508 227.482 50.3262 226.791 51.6738C226.111 53.0332 225.156 54.0176 223.925 54.627C222.707 55.248 221.294 55.5586 219.689 55.5586ZM251.734 38.1387C251.734 39.7793 251.511 41.2324 251.066 42.498C250.632 43.7637 249.994 44.8359 249.15 45.7148C248.318 46.582 247.31 47.2383 246.127 47.6836C244.955 48.1289 243.63 48.3516 242.154 48.3516C240.771 48.3516 239.5 48.1289 238.339 47.6836C237.191 47.2383 236.189 46.582 235.334 45.7148C234.49 44.8359 233.834 43.7637 233.365 42.498C232.908 41.2324 232.679 39.7793 232.679 38.1387C232.679 35.959 233.066 34.1133 233.839 32.6016C234.613 31.0898 235.714 29.9414 237.144 29.1562C238.574 28.3711 240.279 27.9785 242.259 27.9785C244.099 27.9785 245.728 28.3711 247.146 29.1562C248.576 29.9414 249.695 31.0898 250.503 32.6016C251.324 34.1133 251.734 35.959 251.734 38.1387ZM238.146 38.1387C238.146 39.4277 238.287 40.5117 238.568 41.3906C238.849 42.2695 239.289 42.9316 239.886 43.377C240.484 43.8223 241.263 44.0449 242.224 44.0449C243.173 44.0449 243.941 43.8223 244.527 43.377C245.125 42.9316 245.558 42.2695 245.828 41.3906C246.109 40.5117 246.25 39.4277 246.25 38.1387C246.25 36.8379 246.109 35.7598 245.828 34.9043C245.558 34.0371 245.125 33.3867 244.527 32.9531C243.929 32.5195 243.15 32.3027 242.189 32.3027C240.771 32.3027 239.74 32.7891 239.095 33.7617C238.462 34.7344 238.146 36.1934 238.146 38.1387ZM261.525 28.3477V48H256.164V28.3477H261.525ZM258.853 20.6484C259.65 20.6484 260.335 20.8359 260.91 21.2109C261.484 21.5742 261.771 22.2598 261.771 23.2676C261.771 24.2637 261.484 24.9551 260.91 25.3418C260.335 25.7168 259.65 25.9043 258.853 25.9043C258.044 25.9043 257.353 25.7168 256.779 25.3418C256.216 24.9551 255.935 24.2637 255.935 23.2676C255.935 22.2598 256.216 21.5742 256.779 21.2109C257.353 20.8359 258.044 20.6484 258.853 20.6484ZM278.33 27.9785C280.427 27.9785 282.115 28.5527 283.392 29.7012C284.669 30.8379 285.308 32.666 285.308 35.1855V48H279.947V36.5215C279.947 35.1152 279.689 34.0547 279.173 33.3398C278.669 32.625 277.873 32.2676 276.783 32.2676C275.142 32.2676 274.023 32.8242 273.425 33.9375C272.828 35.0508 272.529 36.6562 272.529 38.7539V48H267.168V28.3477H271.263L271.984 30.8613H272.283C272.705 30.1816 273.226 29.6309 273.847 29.209C274.48 28.7871 275.177 28.4766 275.939 28.2773C276.712 28.0781 277.509 27.9785 278.33 27.9785Z" fill="white"/>
</svg>
