<svg width="498" height="561" viewBox="0 0 498 561" fill="none" xmlns="http://www.w3.org/2000/svg">
<g clip-path="url(#clip0_106_1031)">
<path d="M377.647 165.906C370.029 163.85 366.211 157.738 357.876 158.668C352.202 159.299 349.002 162.684 345.821 164.94C340.123 168.98 332.291 170.952 324.494 171.196C332.706 179.827 344.301 185.205 357.153 185.205C373.437 185.205 387.706 176.566 395.63 163.618C389.701 166.301 383.357 167.447 377.647 165.906Z" fill="#1C2928"/>
<path d="M402.238 139.177C394.677 144.3 385.555 147.306 377.651 145.17C370.034 143.11 366.219 136.998 357.884 137.92C352.21 138.551 349.006 141.932 345.825 144.184C337.263 150.248 323.904 151.641 313.062 149.525C314.826 157.81 318.86 165.255 324.486 171.176C332.283 170.936 340.116 168.972 345.813 164.932C348.994 162.68 352.198 159.295 357.872 158.668C366.207 157.746 370.022 163.858 377.639 165.918C383.345 167.463 389.689 166.321 395.622 163.642C399.82 156.796 402.242 148.739 402.246 140.12C402.246 139.804 402.242 139.493 402.234 139.181L402.238 139.177Z" fill="#52B5A4"/>
<path d="M357.321 94.978C332.418 94.978 312.232 115.175 312.232 140.092C312.232 143.337 312.58 146.503 313.23 149.553C324.071 151.661 337.43 150.26 345.989 144.192C349.169 141.936 352.369 138.55 358.043 137.92C366.378 136.989 370.197 143.102 377.814 145.158C385.719 147.29 394.84 144.279 402.397 139.153C401.899 114.672 381.908 94.978 357.321 94.978Z" fill="#F8FFFE"/>
<path d="M87.7828 43.9158C87.7828 19.6623 68.1314 0 43.8914 0C19.6514 0 0 19.6623 0 43.9158C0 53.4734 3.05644 62.3205 8.23962 69.5306V68.7162C10.9848 62.2087 13.73 55.7052 16.4792 49.1976C19.2244 55.7052 21.9696 62.2127 24.7188 68.7202V83.428C25.7283 83.919 26.7578 84.3742 27.8072 84.7894V61.53C30.8118 54.4156 33.8123 47.2973 36.8169 40.1829C39.8215 47.3013 42.8221 54.4156 45.8266 61.534V73.1796C55.0957 63.9054 64.3608 54.6352 73.6298 45.361V76.2178C82.3323 68.1932 87.7868 56.6913 87.7868 43.9158H87.7828Z" fill="#35655F"/>
<path d="M45.8222 73.1516V47.4049C42.8176 36.2384 39.817 25.0758 36.8124 13.9092C33.8079 25.0718 30.8073 36.2344 27.8027 47.4009V84.7413C29.6063 85.5158 31.5175 86.1466 32.6348 86.3702C39.3861 79.5872 45.8222 73.1476 45.8222 73.1476V73.1516Z" fill="#F7DF3A"/>
<path d="M16.4759 49.1978C13.7307 55.7053 10.9855 62.2088 8.23633 68.7163V69.5308C12.4738 75.4235 18.1318 80.2222 24.7116 83.4281V68.7203C21.9664 62.2128 19.2212 55.7053 16.472 49.1978H16.4759Z" fill="#F8FFFE"/>
<path d="M45.8223 73.1795V87.7875C56.5318 87.3244 66.2477 83.0206 73.6255 76.2177V45.3608C64.3564 54.6351 55.0913 63.9053 45.8223 73.1795Z" fill="#1C2928"/>
<path d="M43.8909 87.8316C44.5373 87.8316 45.1797 87.8156 45.8221 87.7877V73.1797C41.425 77.5792 37.0319 81.9748 32.6348 86.3744C36.2259 87.3246 40.0005 87.8356 43.8909 87.8356V87.8316Z" fill="#52B5A4"/>
<path d="M151.578 79.0484C170.97 79.0484 186.691 63.319 186.691 43.9158C186.691 24.5126 170.97 8.7832 151.578 8.7832C132.186 8.7832 116.465 24.5126 116.465 43.9158C116.465 63.319 132.186 79.0484 151.578 79.0484Z" fill="#F7DF3A"/>
<path d="M43.891 168.836C59.7576 168.836 72.62 155.967 72.62 140.092C72.62 124.216 59.7576 111.347 43.891 111.347C28.0245 111.347 15.1621 124.216 15.1621 140.092C15.1621 155.967 28.0245 168.836 43.891 168.836Z" fill="#52B5A4"/>
<path d="M151.577 167.638C166.782 167.638 179.109 155.305 179.109 140.091C179.109 124.877 166.782 112.544 151.577 112.544C136.371 112.544 124.045 124.877 124.045 140.091C124.045 155.305 136.371 167.638 151.577 167.638Z" fill="#1C2928"/>
<path d="M151.657 453.75C166.862 453.75 179.189 441.416 179.189 426.202C179.189 410.989 166.862 398.655 151.657 398.655C136.451 398.655 124.125 410.989 124.125 426.202C124.125 441.416 136.451 453.75 151.657 453.75Z" fill="#1C2928"/>
<path d="M460.346 351.605C470.868 351.605 479.399 343.07 479.399 332.542C479.399 322.014 470.868 313.479 460.346 313.479C449.823 313.479 441.293 322.014 441.293 332.542C441.293 343.07 449.823 351.605 460.346 351.605Z" fill="#F8FFFE"/>
<path d="M358.912 367.475C378.194 367.475 393.825 351.835 393.825 332.542C393.825 313.249 378.194 297.609 358.912 297.609C339.629 297.609 323.998 313.249 323.998 332.542C323.998 351.835 339.629 367.475 358.912 367.475Z" fill="#52B5A4"/>
<path d="M257.065 71.2635C272.16 71.2635 284.397 59.0195 284.397 43.9159C284.397 28.8123 272.16 16.5684 257.065 16.5684C241.97 16.5684 229.732 28.8123 229.732 43.9159C229.732 59.0195 241.97 71.2635 257.065 71.2635Z" fill="#52B5A4"/>
<path d="M151.576 357.095C165.129 357.095 176.116 346.102 176.116 332.542C176.116 318.982 165.129 307.989 151.576 307.989C138.024 307.989 127.037 318.982 127.037 332.542C127.037 346.102 138.024 357.095 151.576 357.095Z" fill="#F7DF3A"/>
<path d="M358.912 58.6874C367.066 58.6874 373.675 52.0739 373.675 43.9157C373.675 35.7575 367.066 29.144 358.912 29.144C350.758 29.144 344.148 35.7575 344.148 43.9157C344.148 52.0739 350.758 58.6874 358.912 58.6874Z" fill="#F8FFFE"/>
<path d="M257.064 153.465C264.447 153.465 270.431 147.478 270.431 140.091C270.431 132.705 264.447 126.717 257.064 126.717C249.682 126.717 243.697 132.705 243.697 140.091C243.697 147.478 249.682 153.465 257.064 153.465Z" fill="#F7DF3A"/>
<path d="M358.912 439.577C366.294 439.577 372.279 433.589 372.279 426.202C372.279 418.816 366.294 412.828 358.912 412.828C351.53 412.828 345.545 418.816 345.545 426.202C345.545 433.589 351.53 439.577 358.912 439.577Z" fill="#F7DF3A"/>
<path d="M151.577 250.927C159.511 250.927 165.942 244.492 165.942 236.554C165.942 228.616 159.511 222.182 151.577 222.182C143.644 222.182 137.213 228.616 137.213 236.554C137.213 244.492 143.644 250.927 151.577 250.927Z" fill="#F8FFFE"/>
<path d="M358.912 248.332C365.412 248.332 370.682 243.059 370.682 236.554C370.682 230.05 365.412 224.777 358.912 224.777C352.411 224.777 347.141 230.05 347.141 236.554C347.141 243.059 352.411 248.332 358.912 248.332Z" fill="#1C2928"/>
<path d="M460.346 50.7029C464.092 50.7029 467.129 47.6642 467.129 43.9159C467.129 40.1675 464.092 37.1289 460.346 37.1289C456.599 37.1289 453.562 40.1675 453.562 43.9159C453.562 47.6642 456.599 50.7029 460.346 50.7029Z" fill="#35655F"/>
<path d="M257.064 243.341C260.811 243.341 263.848 240.302 263.848 236.554C263.848 232.806 260.811 229.767 257.064 229.767C253.318 229.767 250.281 232.806 250.281 236.554C250.281 240.302 253.318 243.341 257.064 243.341Z" fill="#52B5A4"/>
<path d="M257.064 339.329C260.811 339.329 263.848 336.291 263.848 332.542C263.848 328.794 260.811 325.755 257.064 325.755C253.318 325.755 250.281 328.794 250.281 332.542C250.281 336.291 253.318 339.329 257.064 339.329Z" fill="#1C2928"/>
<path d="M460.492 432.989C464.238 432.989 467.275 429.951 467.275 426.203C467.275 422.454 464.238 419.416 460.492 419.416C456.746 419.416 453.709 422.454 453.709 426.203C453.709 429.951 456.746 432.989 460.492 432.989Z" fill="#52B5A4"/>
<path d="M460.493 541.641C471.952 541.641 481.241 532.346 481.241 520.881C481.241 509.415 471.952 500.121 460.493 500.121C449.034 500.121 439.744 509.415 439.744 520.881C439.744 532.346 449.034 541.641 460.493 541.641Z" fill="#35655F"/>
<path d="M257.064 527.756C260.811 527.756 263.848 524.717 263.848 520.969C263.848 517.22 260.811 514.182 257.064 514.182C253.318 514.182 250.281 517.22 250.281 520.969C250.281 524.717 253.318 527.756 257.064 527.756Z" fill="#52B5A4"/>
<path d="M43.8923 560.094C65.4885 560.094 82.9956 542.577 82.9956 520.969C82.9956 499.361 65.4885 481.844 43.8923 481.844C22.2962 481.844 4.78906 499.361 4.78906 520.969C4.78906 542.577 22.2962 560.094 43.8923 560.094Z" fill="#35655F"/>
<path d="M151.577 532.547C157.968 532.547 163.149 527.363 163.149 520.969C163.149 514.575 157.968 509.391 151.577 509.391C145.187 509.391 140.006 514.575 140.006 520.969C140.006 527.363 145.187 532.547 151.577 532.547Z" fill="#F7DF3A"/>
<path d="M43.8915 445.765C54.6895 445.765 63.4431 437.007 63.4431 426.203C63.4431 415.399 54.6895 406.64 43.8915 406.64C33.0934 406.64 24.3398 415.399 24.3398 426.203C24.3398 437.007 33.0934 445.765 43.8915 445.765Z" fill="#F8FFFE"/>
<path d="M43.8905 355.498C56.5617 355.498 66.8337 345.221 66.8337 332.542C66.8337 319.864 56.5617 309.586 43.8905 309.586C31.2193 309.586 20.9473 319.864 20.9473 332.542C20.9473 345.221 31.2193 355.498 43.8905 355.498Z" fill="#1C2928"/>
<path d="M43.8917 261.706C57.775 261.706 69.0295 250.445 69.0295 236.554C69.0295 222.663 57.775 211.402 43.8917 211.402C30.0085 211.402 18.7539 222.663 18.7539 236.554C18.7539 250.445 30.0085 261.706 43.8917 261.706Z" fill="#F7DF3A"/>
<path d="M460.345 154.464C468.278 154.464 474.709 148.029 474.709 140.091C474.709 132.154 468.278 125.719 460.345 125.719C452.412 125.719 445.98 132.154 445.98 140.091C445.98 148.029 452.412 154.464 460.345 154.464Z" fill="#F7DF3A"/>
<path d="M261.5 401.458C264.277 406.776 267.378 412.844 266.524 419.045C265.798 424.322 262.697 428.934 259.31 432.89C255.076 437.84 248.636 440.292 242.858 442.927C240.169 444.152 237.938 445.665 236.035 447.514H300.855C301.094 445.007 301.13 442.531 299.793 440.292C298.525 438.16 296.17 436.854 293.752 436.303C289.93 435.429 280.018 438.044 277.656 433.964C276.172 431.401 279.719 426.155 280.776 423.959C283.673 417.939 289.814 411.699 289.339 404.596C289.184 402.293 288.242 400.089 286.937 398.185C285.198 395.641 282.788 393.561 280.018 392.208C276.072 390.284 272.864 390.515 272.094 385.489C271.863 383.984 271.938 382.367 272.258 380.786C268.922 379.836 265.43 379.245 261.835 379.053C260.483 381.029 259.202 383.058 258.049 385.162C254.769 391.138 258.719 396.132 261.5 401.458Z" fill="#F8FFFE"/>
<path d="M212.119 426.203C212.119 433.872 213.947 441.11 217.191 447.514H236.036C237.939 445.665 240.17 444.152 242.859 442.927C248.637 440.292 255.077 437.84 259.31 432.89C262.698 428.93 265.794 424.322 266.525 419.045C267.378 412.844 264.278 406.78 261.501 401.458C258.72 396.132 254.77 391.134 258.05 385.161C259.203 383.058 260.484 381.029 261.836 379.053C261.002 379.009 260.16 378.985 259.314 378.985C233.251 378.985 212.123 400.125 212.123 426.203H212.119Z" fill="#F7DF3A"/>
<path d="M272.091 385.485C272.865 390.511 276.07 390.28 280.016 392.204C282.785 393.553 285.195 395.637 286.935 398.18C288.239 400.085 289.181 402.289 289.337 404.592C289.816 411.695 283.671 417.935 280.774 423.955C279.717 426.151 276.169 431.397 277.654 433.96C280.016 438.04 289.927 435.425 293.75 436.299C296.168 436.85 298.522 438.156 299.791 440.288C301.124 442.527 301.088 445.007 300.852 447.51H301.431C304.675 441.106 306.502 433.868 306.502 426.199C306.502 404.612 292.026 386.407 272.255 380.778C271.936 382.359 271.86 383.972 272.091 385.481V385.485Z" fill="#52B5A4"/>
<path d="M230.67 455.1C229.648 457.152 228.755 459.268 227.797 461.352C236.152 468.857 247.197 473.424 259.311 473.424C277.159 473.424 292.692 463.511 300.712 448.884C300.76 448.428 300.812 447.969 300.856 447.514H236.036C233.894 449.598 232.166 452.101 230.674 455.1H230.67Z" fill="#35655F"/>
<path d="M227.797 461.352C228.759 459.272 229.649 457.152 230.67 455.1C232.162 452.105 233.89 449.598 236.033 447.514H217.188C219.849 452.768 223.46 457.451 227.797 461.348V461.352Z" fill="#1C2928"/>
<path d="M387.301 492.511C381.073 486.279 373.304 482.526 365.22 481.253L358.947 520.881L387.301 492.511Z" fill="#35655F"/>
<path d="M323.208 502.664C319.326 510.285 318.037 518.885 319.338 527.161L358.944 520.885L323.208 502.668V502.664Z" fill="#F7DF3A"/>
<path d="M340.738 485.125C337.083 486.99 333.651 489.449 330.591 492.511C327.53 495.573 325.072 499.007 323.209 502.664L358.945 520.881L340.738 485.125Z" fill="#F7DF3A"/>
<path d="M365.22 481.253C356.952 479.951 348.353 481.241 340.736 485.126L358.943 520.881L365.216 481.253H365.22Z" fill="#35655F"/>
<path d="M319.338 527.157C320.611 535.245 324.361 543.018 330.59 549.25L358.944 520.881L319.338 527.157Z" fill="#F8FFFE"/>
<path d="M377.154 556.636C380.809 554.772 384.241 552.313 387.301 549.25C390.362 546.188 392.819 542.755 394.683 539.098L358.947 520.881L377.154 556.636Z" fill="#52B5A4"/>
<path d="M358.943 520.881L398.549 514.605C397.277 506.516 393.526 498.743 387.297 492.511L358.943 520.881Z" fill="#1C2928"/>
<path d="M394.683 539.098C398.565 531.477 399.854 522.877 398.553 514.601L358.947 520.877L394.683 539.094V539.098Z" fill="#1C2928"/>
<path d="M330.59 549.25C336.818 555.483 344.587 559.235 352.671 560.509L358.944 520.881L330.59 549.25Z" fill="#F8FFFE"/>
<path d="M352.672 560.509C360.939 561.81 369.538 560.521 377.155 556.636L358.948 520.881L352.676 560.509H352.672Z" fill="#52B5A4"/>
<path d="M482.77 257.893C481.218 257.945 479.698 258.388 478.146 258.44C477.148 258.472 476.087 258.316 475.333 257.666C474.032 256.544 474.196 254.66 473.825 253.138C473.406 251.422 472.827 249.797 472.556 248.032C472.28 246.24 469.962 245.812 470.345 244.012C470.64 242.615 472.304 241.804 472.987 240.63C473.657 239.473 473.545 238.043 473.414 236.71C473.078 233.368 472.767 229.967 471.806 226.737C471 224.034 471.203 221.435 472.959 219.088C474.407 217.147 476.646 215.85 479.024 215.395C480.376 215.135 481.769 215.139 483.126 214.884C484.989 214.532 486.202 212.816 487.95 212.564C481.258 205.502 471.794 201.094 461.3 201.094C449.92 201.094 439.753 206.272 433.021 214.405C434.929 213.938 438.648 215.315 440.012 215.634C443.699 216.505 447.031 218.545 449.285 221.627C451.819 225.092 452.809 229.643 451.951 233.851C451.336 236.846 449.892 239.976 452.198 242.655C452.745 243.289 453.451 243.836 453.706 244.635C454.185 246.136 452.789 248.3 452.521 249.881C452.25 251.51 452.126 253.162 451.811 254.787C451.228 257.77 449.912 261.067 446.305 260.788C443.085 260.54 440.292 259.123 437.626 261.981C436.96 262.696 436.425 263.55 436.038 264.465C442.622 270.717 451.516 274.553 461.308 274.553C472.025 274.553 481.665 269.958 488.377 262.632C488.129 261.95 487.878 261.363 487.666 260.824C486.86 258.78 484.913 257.825 482.786 257.893H482.77Z" fill="#1C2928"/>
<path d="M446.288 260.788C449.896 261.067 451.212 257.769 451.795 254.787C452.11 253.162 452.234 251.509 452.505 249.88C452.768 248.3 454.165 246.136 453.69 244.635C453.435 243.836 452.729 243.289 452.182 242.654C449.876 239.975 451.324 236.845 451.935 233.851C452.796 229.643 451.803 225.092 449.269 221.627C447.015 218.545 443.687 216.505 439.996 215.634C438.631 215.311 434.917 213.937 433.005 214.405C427.742 220.76 424.574 228.921 424.574 237.824C424.574 248.312 428.967 257.773 436.014 264.465C436.401 263.55 436.936 262.696 437.602 261.981C440.267 259.123 443.06 260.54 446.28 260.788H446.288Z" fill="#F7DF3A"/>
<path d="M487.941 212.564C486.194 212.82 484.981 214.533 483.117 214.884C481.764 215.14 480.372 215.14 479.015 215.395C476.637 215.85 474.403 217.148 472.95 219.088C471.195 221.435 470.991 224.03 471.797 226.737C472.759 229.967 473.07 233.373 473.405 236.71C473.537 238.04 473.653 239.473 472.978 240.631C472.296 241.804 470.632 242.615 470.337 244.012C469.958 245.813 472.272 246.24 472.547 248.032C472.819 249.797 473.397 251.422 473.816 253.139C474.187 254.66 474.024 256.544 475.324 257.666C476.079 258.317 477.144 258.472 478.137 258.44C479.69 258.389 481.21 257.945 482.762 257.894C484.889 257.826 486.836 258.78 487.642 260.824C487.853 261.363 488.105 261.95 488.352 262.632C494.337 256.097 497.992 247.39 497.992 237.824C497.992 228.258 494.166 219.148 487.933 212.564H487.941Z" fill="#35655F"/>
</g>
<defs>
<clipPath id="clip0_106_1031">
<rect width="498" height="561" fill="white"/>
</clipPath>
</defs>
</svg>
