<svg xmlns="http://www.w3.org/2000/svg" width="150" height="150" viewBox="0 0 150 150" fill="none">
    <path d="M118.899 115.981C115.727 116.087 112.621 116.992 109.45 117.098C107.412 117.163 105.244 116.845 103.703 115.516C101.045 113.226 101.38 109.378 100.621 106.272C99.7655 102.766 98.5835 99.4484 98.0291 95.8451C97.4666 92.1848 92.7302 91.3125 93.5128 87.6359C94.1161 84.7826 97.5155 83.1277 98.9095 80.7309C100.279 78.3668 100.051 75.4483 99.7818 72.7255C99.097 65.9021 98.4612 58.9565 96.4965 52.3614C94.8498 46.8424 95.2655 41.5353 98.8524 36.7419C101.812 32.7799 106.385 30.1304 111.244 29.2011C114.007 28.6712 116.852 28.6793 119.624 28.1576C123.431 27.4402 125.909 23.9348 129.48 23.4212C115.809 8.99998 96.472 0 75.0319 0C51.7821 0 31.0104 10.5733 17.2578 27.1793C21.1545 26.2255 28.7523 29.038 31.5404 29.6902C39.0729 31.4674 45.8799 35.6331 50.4859 41.9266C55.6625 49.0027 57.6842 58.2962 55.9315 66.8886C54.6761 73.0027 51.725 79.394 56.437 84.8641C57.5538 86.1603 58.9967 87.2772 59.5184 88.9076C60.4967 91.9728 57.6434 96.3913 57.0972 99.6196C56.5429 102.946 56.2902 106.321 55.6461 109.639C54.4559 115.728 51.7658 122.462 44.3963 121.891C37.8175 121.386 32.111 118.492 26.6654 124.329C25.304 125.788 24.2116 127.533 23.4209 129.399C36.8719 142.166 55.0429 150 75.0482 150C96.9448 150 116.64 140.617 130.352 125.658C129.847 124.264 129.333 123.065 128.901 121.965C127.254 117.791 123.276 115.842 118.931 115.981H118.899Z" fill="#1C2928"/>
    <path d="M44.3638 121.891C51.7333 122.462 54.4236 115.728 55.6138 109.639C56.2578 106.321 56.5105 102.946 57.0649 99.6195C57.6029 96.3913 60.4561 91.9728 59.486 88.9076C58.9643 87.2771 57.5214 86.1603 56.4045 84.8641C51.6926 79.394 54.6518 73.0027 55.8991 66.8885C57.6599 58.2962 55.63 49.0027 50.4534 41.9266C45.8475 35.6331 39.0486 31.4673 31.5079 29.6902C28.7199 29.0298 21.1302 26.2255 17.2253 27.1793C6.47269 40.1575 0 56.8206 0 75C0 96.4157 8.97543 115.736 23.3721 129.399C24.1628 127.533 25.2552 125.788 26.6166 124.329C32.0622 118.492 37.7687 121.386 44.3475 121.891H44.3638Z" fill="#F7DF3A"/>
    <path d="M129.465 23.4209C125.894 23.9426 123.416 27.4399 119.609 28.1573C116.845 28.679 114 28.6791 111.228 29.2008C106.37 30.1302 101.805 32.7796 98.8373 36.7416C95.2503 41.535 94.8346 46.8339 96.4813 52.3611C98.446 58.9562 99.0817 65.91 99.7665 72.7252C100.036 75.4399 100.272 78.3665 98.8943 80.7307C97.5003 83.1274 94.1008 84.7823 93.4976 87.6356C92.7231 91.3122 97.4514 92.1845 98.0139 95.8448C98.5682 99.4481 99.7502 102.766 100.606 106.271C101.364 109.377 101.03 113.225 103.688 115.516C105.228 116.845 107.405 117.163 109.435 117.098C112.606 116.992 115.712 116.087 118.883 115.981C123.228 115.842 127.207 117.79 128.853 121.964C129.285 123.065 129.799 124.263 130.304 125.657C142.533 112.312 150 94.5323 150 74.9997C150 55.4671 142.182 36.8638 129.448 23.4209H129.465Z" fill="#35655F"/>
</svg>
