<svg xmlns="http://www.w3.org/2000/svg" width="150" height="150" viewBox="0 0 150 150" fill="none">
    <path d="M108.824 117.916C96.1519 114.498 89.7993 104.336 75.9324 105.883C66.4931 106.931 61.1693 112.56 55.8788 116.31C46.3997 123.026 33.3692 126.305 20.3984 126.71C34.0595 141.06 53.3497 150 74.7309 150C101.821 150 125.558 135.637 138.742 114.113C128.877 118.573 118.323 120.478 108.824 117.916Z" fill="#1C2928"/>
    <path d="M149.735 73.4805C137.156 81.996 121.981 86.9938 108.831 83.4429C96.1589 80.0181 89.8129 69.8566 75.9461 71.3898C66.5067 72.4385 61.1764 78.0602 55.8859 81.8035C41.6406 91.8854 19.4164 94.2018 1.38086 90.6841C4.31488 104.456 11.0259 116.835 20.3856 126.677C33.3563 126.279 46.3868 123.014 55.866 116.297C61.1565 112.554 66.4869 106.925 75.9262 105.883C89.793 104.35 96.139 114.512 108.811 117.936C118.303 120.505 128.858 118.607 138.729 114.153C145.712 102.77 149.741 89.3765 149.748 75.0469C149.748 74.5225 149.741 74.0048 149.728 73.4871L149.735 73.4805Z" fill="#52B5A4"/>
    <path d="M75.01 0C33.5819 0 0 33.5775 0 75.0001C0 80.3961 0.57751 85.6594 1.65951 90.7302C19.6951 94.2346 41.9193 91.905 56.1579 81.8164C61.4484 78.0664 66.7721 72.4381 76.2114 71.3894C90.0783 69.843 96.4309 80.0045 109.103 83.4226C122.253 86.9669 137.428 81.9624 150 73.4403C149.17 32.7412 115.914 0 75.01 0Z" fill="#F8FFFE"/>
</svg>
